/* XPM */
static char *ayni[] = {
/* columns rows colors chars-per-pixel */
"32 32 256 2 ",
"   c #080505",
".  c #100616",
"X  c #181919",
"o  c #130A0A",
"O  c #321D14",
"+  c #241E15",
"@  c #1C272A",
"#  c #242424",
"$  c #2E2E2E",
"%  c #3E332B",
"&  c #2A2E30",
"*  c #333333",
"=  c #3B3C3C",
"-  c #3A3837",
";  c #372E29",
":  c #5E0912",
">  c #461209",
",  c #690103",
"<  c #600000",
"1  c #781606",
"2  c #691A0E",
"3  c #56240B",
"4  c #7B270C",
"5  c #6E3D04",
"6  c #702D14",
"7  c #640F23",
"8  c #463D38",
"9  c #5D2738",
"0  c #6C4D00",
"q  c #774201",
"w  c #7C5E00",
"e  c #795C11",
"r  c #7B6800",
"t  c #40403F",
"y  c #7C5237",
"u  c #392D74",
"i  c #5A3052",
"p  c #3A466E",
"a  c #444545",
"s  c #474A4C",
"d  c #4B4A49",
"f  c #545353",
"g  c #5B5B5B",
"h  c #4D4C55",
"j  c #705241",
"k  c #635F55",
"l  c #706760",
"z  c #777777",
"x  c #6C6F72",
"c  c #871C05",
"v  c #8D250C",
"b  c #932C0E",
"n  c #9A2409",
"m  c #863A0F",
"M  c #852A15",
"N  c #8B3912",
"B  c #813016",
"V  c #953813",
"C  c #97370D",
"Z  c #A52A0D",
"A  c #B62C00",
"S  c #A33210",
"D  c #A93914",
"F  c #B23310",
"G  c #B93812",
"H  c #883634",
"J  c #A53B24",
"K  c #9F4D0E",
"L  c #885804",
"P  c #844618",
"I  c #A84717",
"U  c #BC471A",
"Y  c #B7530E",
"T  c #866700",
"R  c #956B01",
"E  c #936804",
"W  c #897600",
"Q  c #8B7C00",
"!  c #937500",
"~  c #9B7600",
"^  c #997800",
"/  c #937B00",
"(  c #9A6116",
")  c #947110",
"_  c #A47D00",
"`  c #AE6E1D",
"'  c #AA6818",
"]  c #B67319",
"[  c #BA4021",
"{  c #AC5821",
"}  c #9E6823",
"|  c #8C6F3F",
" . c #99673B",
".. c #A76D2A",
"X. c #AD7227",
"o. c #BB7A27",
"O. c #BE6234",
"+. c #B77E36",
"@. c #C94519",
"#. c #C74717",
"$. c #C6511A",
"%. c #CD551C",
"&. c #CA5317",
"*. c #D5581C",
"=. c #D9571E",
"-. c #E35C1E",
";. c #E5601F",
":. c #EC611E",
">. c #C34B24",
",. c #D34F20",
"<. c #C27E2A",
"1. c #E66020",
"2. c #EC6120",
"3. c #ED6A2A",
"4. c #F16421",
"5. c #F16823",
"6. c #FA6B23",
"7. c #F16C29",
"8. c #FF7426",
"9. c #E26C32",
"0. c #F27834",
"q. c #996942",
"w. c #9E7A4D",
"e. c #A07E51",
"r. c #A87C46",
"t. c #83800A",
"y. c #998A00",
"u. c #9B8700",
"i. c #A78200",
"p. c #A98600",
"a. c #AF8C00",
"s. c #AE9C00",
"d. c #B69B00",
"f. c #B99A00",
"g. c #B09300",
"h. c #BEA500",
"j. c #B4AA06",
"k. c #BFB901",
"l. c #ACA518",
"z. c #B78827",
"x. c #AFA828",
"c. c #C1A501",
"v. c #C2A900",
"b. c #C9AE00",
"n. c #CBB501",
"m. c #C5BA00",
"M. c #CCBB00",
"N. c #C2B100",
"B. c #D2BC00",
"V. c #C5832F",
"C. c #CC8C3C",
"Z. c #CA8636",
"A. c #CA9232",
"S. c #DB913F",
"D. c #D6913D",
"F. c #D28D38",
"G. c #FF8237",
"H. c #CEC300",
"J. c #D3C000",
"K. c #D5CA00",
"L. c #DBCC00",
"P. c #D8C400",
"I. c #DDD200",
"U. c #D3D200",
"Y. c #DCD317",
"T. c #E6D800",
"R. c #ECE100",
"E. c #E4E008",
"W. c #F6EA00",
"Q. c #FAED00",
"!. c #F2E300",
"~. c #FEF400",
"^. c #FFFC00",
"/. c #F7F000",
"(. c #898753",
"). c #BA8748",
"_. c #B98153",
"`. c #8F8D62",
"'. c #8B8579",
"]. c #AE8962",
"[. c #C98B47",
"{. c #C7904D",
"}. c #D3924F",
"|. c #D99645",
" X c #C69150",
".X c #F68948",
"XX c #E29A46",
"oX c #E29B48",
"OX c #E09F58",
"+X c #EAA04E",
"@X c #E6A14D",
"#X c #ECA455",
"$X c #E7A255",
"%X c #F5AD5A",
"&X c #FBAF5B",
"*X c #F8A855",
"=X c #FBB35B",
"-X c #CEA064",
";X c #F3AB61",
":X c #EBB674",
">X c #F7BA74",
",X c #2F5F95",
"<X c #3E6EAC",
"1X c #3E6DBB",
"2X c #3F7BBF",
"3X c #2D77B5",
"4X c #43549B",
"5X c #496580",
"6X c #486190",
"7X c #636F98",
"8X c #406BB4",
"9X c #4D71B3",
"0X c #326EC0",
"qX c #417EC1",
"wX c #8D7D83",
"eX c #3B80CC",
"rX c #428CCB",
"tX c #4C82C4",
"yX c #5183C5",
"uX c #4B91CC",
"iX c #4897D4",
"pX c #579FDC",
"aX c #659EDD",
"sX c #65A3D7",
"dX c #69A1D6",
"fX c #8B8B8C",
"gX c #858585",
"hX c #8F9097",
"jX c #949494",
"kX c #9C9B99",
"lX c #8A8B9C",
"zX c #AFA698",
"xX c #9D9DA1",
"cX c #ACACAC",
"vX c #A0A0A0",
"bX c #ACAEB2",
"nX c #B3B5B6",
"mX c #BABBA7",
"MX c #D4B182",
"NX c #D6BE9F",
"BX c #DFC39D",
"VX c #F4C486",
"CX c #C7C2BA",
"ZX c #DBC3A5",
"AX c #EAD4BC",
"SX c #BDBDC2",
"DX c #C6C6C6",
"FX c #C4C4C8",
"GX c #C7C9D1",
"HX c #DFDEDC",
"JX c #F6E8D6",
"KX c #EAEBEB",
"LX c #E2E3E5",
"PX c #F0ECE5",
"IX c #F5F7F8",
"UX c None",
/* pixels */
"UXUXUXUXUXUXUXUXUXUXUXUXUXUXUXUXUXUXUXUXUXUXUXUXUXUXUXUXUXUXUXUX",
"UXUXUXUXUXUXUXUXUXUXUXUXUXc.R c.P.B.B.a.~ UXUXUXUXUXUXUXUXUXUXUX",
"UXUXUXUXUXUXUXUXUXUXUX_ R.T m.T.W.W.Q.~.~.~.p.UXUXUXUXUXUXUXUXUX",
"UXUXUXUXUXUXUXUXUXUXE n.w I.W.Q.Q.^.^.f._ B.^.n.UXUXUXUXUXUXUXUX",
"UXUXUXUXUXUXUXUXUXq N.r R.Q.~.B.P.d.R ^ d.! ~ v.c.UXUXUXUXUXUXUX",
"UXUXUXUXUXUXUXUXUXv.r H.~.Q.f.M.u.! s.n.K.I.M.c.d.E UXUXUXUXUXUX",
"UXUXUXUXUXUXUXUXL I.! W.^.v.H.0 m.T./.~.~.Q.~.~.~.^.UXUXUXUXUXUX",
"UXUXUXUXUXUXUXUXp.^ d.!.L.c.W m.W.^.~.~.~.~.Q.~.~.~._ UXUXUXUXUX",
"UXUXUXUXUXUXa.T.^.R.d.M.p.! j.~.^.^.j.l.U.^.^.^.m.Q.n.UXUXUXUXUX",
"UXUXUXUXUX_ ^.W.!.~.~.Q.^.B.R n.Q.E.mXSXlX'.x.e U.~.Y.z UXUXUXUX",
"UXUXUXUXUXL n.L.H.m.M.H.I.I.n.L.g.e vX+ t GXGXbX'.(.z fXUXUXUXUX",
"UXUXUXUXUXUXUX{.|.A.z.) T W u.u.Q y.W 5 gXxXe.jXvXhXfXUXUXUXUXUX",
"UXUXUXUXUXUXUXVX>X&X;X;X..oX' ( .... .bXkXx vXfXx g g UXUXUXUXUX",
"UXUXUXUXUXUXUXZ.$X[.z.....OX[.KXGXw.|.'.zX  nX; a jXg UXUXUXUXUX",
"UXUXUXUXUXUXUXUX( X.C.+.Z.MXIXIXFXnXe.:X'.a cX$   cXl UXUXUXUXUX",
"UXUXUXUXUXUXUXUXUX` +.JXPXKXcXfXDXnXCX:X|.l cXkXg CXgXUXUXUXUXUX",
"UXUXUXUXUXUXUXUXUXUXUXz HXLXIXIXKXIX).:X[.} p 9X1X8X6XUXUXUXUXUX",
"UXUXUXUXUX# UXUXUXUXUXV.-XBXAXZXNX X$X X{ j eXrXrXrXrXqXUXUXUXUX",
"UXUXm  .8 s o UXUXUXUX] <.S.#XoXV.$XOXX.Y i iXuXrXrXrXrXqXUXUXUX",
"UXUXUX8 s ; UXUXUXUXUXaX| ] o.Z.|.X.K :.I 1 4XyXsXsXrXrX0Xu UXUX",
"UXUXX d 8 q. .UXUXUXUXdX<Xc 6 f p 9X7 =.. M A G H 7XyXgX*X=X<.UX",
"UXUXUXX > q.].+.%Xy pXiX9 2 V J I >.-.Z D c V 5.&.U _.=X*X|.F.UX",
"UXUXUXUXUXUXe =XC.%Xx 3Xi n O.3.7.6.6.@.< b $.2.%.I %XS.D.#Xo.UX",
"UXUXUXUXUXUXUXD.V.|._.,X: -.>.@.@.#.F G 8.$.F F #.S { @X*X' UXUX",
"UXUXUXUXUXUXUXXX+X` ..M b 1 %.3.5.2.8.Z -.G 9..X.X9.G UXUXUXUXUX",
"UXUXUXUXUXUXUXUX' @XB %.I 4 S 5.-.1.6.n -.-.2.:.5.0.:.@.UXUXUXUX",
"UXUXUXUXUXUXUXUXUXUX[ G.=.V 2 I %.-.;.F #.;.2.5.4.4.6.@.UXUXUXUX",
"UXUXUXUXUXUXUXUXUXUXB N >.%.N 6 1 v b v 1 =.*.;.8.*.N C UXUXUXUX",
"UXUXUXUXUXUXUXUX- $ = = X o 3 4 UXUXUXUXUX, -.V O & d - X UXUXUX",
"UXUXUXUXUXUXUXX a $ # # # # X > UXUXUXUXUXUX, @ = f t - = * UXUX",
"UXUXUXUXUXUXUXUXUXUXUXUXUXUXUXUXUXUXUXUXUXUXUXUXUXUXUXUXUXUXUXUX",
"UXUXUXUXUXUXUXUXUXUXUXUXUXUXUXUXUXUXUXUXUXUXUXUXUXUXUXUXUXUXUXUX"
};
